<svg width="160" height="160" viewBox="0 0 160 160" fill="none" xmlns="http://www.w3.org/2000/svg">
<g clip-path="url(#clip0_3667_31705)">
<path d="M160 80C160 69.4943 157.931 59.0914 153.91 49.3853C149.89 39.6793 143.997 30.8601 136.569 23.4315C129.14 16.0028 120.321 10.11 110.615 6.08964C100.909 2.06926 90.5057 -4.59221e-07 80 0C69.4942 4.59221e-07 59.0914 2.06926 49.3853 6.08964C39.6793 10.11 30.8601 16.0028 23.4315 23.4315C16.0028 30.8602 10.11 39.6793 6.08964 49.3853C2.06926 59.0914 -9.18442e-07 69.4943 0 80L80 80H160Z" fill="#2B2B2B"/>
<path d="M160 160C160 149.494 157.931 139.091 153.91 129.385C149.89 119.679 143.997 110.86 136.569 103.431C129.14 96.0028 120.321 90.11 110.615 86.0896C100.909 82.0693 90.5058 80 80 80C69.4942 80 59.0914 82.0693 49.3853 86.0896C39.6793 90.11 30.8601 96.0028 23.4315 103.431C16.0028 110.86 10.11 119.679 6.08964 129.385C2.06926 139.091 -9.1844e-07 149.494 0 160L160 160Z" fill="#2B2B2B"/>
</g>
<defs>
<clipPath id="clip0_3667_31705">
<rect width="160" height="160" fill="white"/>
</clipPath>
</defs>
</svg>
